<svg xmlns="http://www.w3.org/2000/svg" viewBox="0 0 73.88 45.17"><defs><style>.cls-1{fill:#c40e38}</style></defs><g id="Layer_2" data-name="Layer 2"><g id="Layer_1-2" data-name="Layer 1"><path class="cls-1" d="M73.79 23.22c-.55-3.28-2.74-5.56-5.6-7.4-.28-.19-.67-.44-1.2-.73a27.75 27.75 0 00-3.27-1.49v4.29a12.05 12.05 0 014.74 3.59 4.07 4.07 0 010 5.3 9.92 9.92 0 01-2.14 2.1 27.21 27.21 0 01-3.92 2.3 41.88 41.88 0 01-10.07 3.16l-.87.18c-1.17.21-2.35.4-3.53.57-1.49.2-3.29.38-5.27.48v3.89c1 0 2.18-.14 3.53-.27h.44c1.33-.14 2.77-.33 4.21-.58 1.76-.3 3.5-.65 5.23-1.08A44.49 44.49 0 0066 33.81a19.29 19.29 0 005.54-4.13 8.58 8.58 0 002.33-5.62c-.01-.2-.03-.52-.08-.84zM27.85 32.3c.93 1.1 1.87 2.19 2.82 3.3l-1.82-.16a64.66 64.66 0 01-12.31-2.35 31.79 31.79 0 01-7.89-3.42A11.88 11.88 0 015.56 27a4.15 4.15 0 010-5.7 10.55 10.55 0 011.94-1.83c.28-.21.59-.4.89-.6s.59-.3.86-.43v-4.67a21.22 21.22 0 00-6 3.87c-.23.21-.39.38-.5.5A10.75 10.75 0 001.29 20a7.32 7.32 0 000 8.3 14 14 0 004.17 4.07 35.33 35.33 0 009.54 4.3 73.84 73.84 0 0014.67 2.71l.87.06c-1 .85-2.09 1.77-3.19 2.67l2.7 3.06c2.77-2.36 5.52-4.73 8.21-7.13-2.44-2.75-4.83-5.5-7.18-8.28z"/><path class="cls-1" d="M22.71 16.39a3.55 3.55 0 01-1.94.47 8.29 8.29 0 01-2.43-.37 7.9 7.9 0 01-2.22-1.08l-1.72 3.74a10.25 10.25 0 003 1.28 13.53 13.53 0 003.51.46 9.12 9.12 0 004.09-.82 5.74 5.74 0 002.44-2.15 5.46 5.46 0 00.78-2.92 5 5 0 00-1.12-3.26A5.59 5.59 0 0023.91 10l3.47-3.92V2.94H15.26v3.84h6.61l-3 3.4v3.14h2c1.71 0 2.57.57 2.57 1.71a1.54 1.54 0 01-.73 1.36zm20.9-1.51a5.46 5.46 0 00-.78-2.88 5.33 5.33 0 00-2.09-2 6.17 6.17 0 00-2.9-.69 5.42 5.42 0 00-3.78 1.31 4.49 4.49 0 011.29-3 4.11 4.11 0 012.95-1.09 5 5 0 013.08.91l1.73-3.57a6.82 6.82 0 00-2.2-1 11.1 11.1 0 00-2.73-.33 9.39 9.39 0 00-4.67 1.13A7.77 7.77 0 0030.38 7a11.29 11.29 0 00-1.11 5.19q0 4.2 2.08 6.44A7.39 7.39 0 0037 20.89a7.35 7.35 0 003.34-.75 5.83 5.83 0 002.4-2.14 5.73 5.73 0 00.87-3.12zm-5.23 1.86a2.29 2.29 0 01-1.64.6 2.34 2.34 0 01-1.74-.61 2.13 2.13 0 01-.64-1.6 2.14 2.14 0 01.64-1.62 2.59 2.59 0 013.34 0A2.14 2.14 0 0139 15.1a2.16 2.16 0 01-.62 1.64zm9.52 3.07a7.3 7.3 0 007.64 0 7.3 7.3 0 002.62-3.16 11.77 11.77 0 00.94-4.92 11.75 11.75 0 00-.94-4.91 7.3 7.3 0 00-2.62-3.16 7.3 7.3 0 00-7.64 0 7.32 7.32 0 00-2.63 3.16 11.75 11.75 0 00-.94 4.91 11.77 11.77 0 00.94 4.92 7.32 7.32 0 002.63 3.16zm1.9-11.93a2.11 2.11 0 013.83 0 8 8 0 01.71 3.85 8 8 0 01-.71 3.86 2.11 2.11 0 01-3.83 0 8 8 0 01-.71-3.86 8 8 0 01.71-3.85zm15.4 1.04a4.46 4.46 0 10-4.46-4.46 4.46 4.46 0 004.46 4.46zm0-6.48a2 2 0 11-2 2 2 2 0 012-2z"/></g></g></svg>