<svg width="18" height="18" fill="none" xmlns="http://www.w3.org/2000/svg"><path d="M5.164 0a.681.681 0 00-.679.68v1.018H3.402A2.653 2.653 0 00.75 4.35v10.998A2.656 2.656 0 003.402 18h11.677a2.656 2.656 0 002.652-2.652V4.35a2.656 2.656 0 00-2.652-2.652h-1.086V.679a.681.681 0 00-.68-.679.681.681 0 00-.678.68v1.018H5.843V.679A.681.681 0 005.164 0zm7.47 3.056v1.019c0 .373.306.679.68.679a.682.682 0 00.679-.68V3.057h1.083c.713 0 1.294.58 1.294 1.294v10.998c0 .713-.58 1.294-1.294 1.294H3.402c-.713 0-1.294-.58-1.294-1.294V4.35c0-.713.58-1.294 1.294-1.294h1.083v1.019c0 .373.306.679.68.679a.68.68 0 00.678-.68V3.057h6.792z" fill="#C40E38"/><path d="M5.504 9.508a1.019 1.019 0 100-2.037 1.019 1.019 0 000 2.037zm3.735 0a1.019 1.019 0 100-2.037 1.019 1.019 0 000 2.037zm3.735 0a1.019 1.019 0 100-2.037 1.019 1.019 0 000 2.037zm-7.47 3.734a1.019 1.019 0 100-2.037 1.019 1.019 0 000 2.037zm3.735 0a1.019 1.019 0 100-2.037 1.019 1.019 0 000 2.037zm3.735 0a1.019 1.019 0 100-2.037 1.019 1.019 0 000 2.037z" fill="#C40E38"/></svg>