<svg width="20" height="17" fill="none" xmlns="http://www.w3.org/2000/svg"><path d="M19.712 4.437a.673.673 0 00.166-.938L18.014.832a.673.673 0 00-.938-.166L15.424 1.82a.66.66 0 00-.084.088 8.417 8.417 0 00-13.286 9.28.624.624 0 00-.112.048L.288 12.392a.673.673 0 00-.166.938l1.865 2.667a.673.673 0 00.937.166l1.654-1.155a.652.652 0 00.084-.088 8.364 8.364 0 003.868 1.785c.492.088.99.133 1.49.134a8.417 8.417 0 007.926-11.193.634.634 0 00.11-.054l1.656-1.155zm-3.913-.072a7.029 7.029 0 011.03 5.885l-6.204-8.88a7.088 7.088 0 013.184 1.08 7.049 7.049 0 011.99 1.915zM5.417 3.027l8.062 11.544a6.99 6.99 0 01-2.514.847.702.702 0 00-.04-.092L3.828 5.165a.604.604 0 00-.072-.067 6.99 6.99 0 011.661-2.072zM2.703 14.673L1.612 13.11l.987-.69c.3.564.666 1.089 1.092 1.564l-.988.689zm1.499-2.209A7.028 7.028 0 013.17 6.58l6.2 8.877a7.03 7.03 0 01-5.169-2.992zm10.381 1.338L6.523 2.259a7.005 7.005 0 012.511-.848.717.717 0 00.04.094l7.098 10.158c.02.029.052.04.075.067a7.012 7.012 0 01-1.664 2.072zm2.32-10.208a8.454 8.454 0 00-.594-.75l.988-.688 1.092 1.563-.988.69a8.52 8.52 0 00-.498-.815z" fill="#232323"/></svg>