<svg width="21" height="21" fill="none" xmlns="http://www.w3.org/2000/svg"><path d="M11.352 16.86c.299-.47.491-.92.64-1.304 1.368-3.59-.726-6.86-.811-6.966-.107 3.29-2.351 4.124-2.48 4.167.086-.107 1.817-2.265 1.646-6.475C10.177 2.222 6.587.214 6.18 0c.342.214.492 1.004.492 1.004.62 2.8-2.692 5.428-2.692 5.428-8.676 8.12-.492 12.33-.3 12.436-.085-.15-2.713-5.385 1.774-8.29-.021.085-.513 1.495 1.603 4.06 0 0 1.025 1.324.577 3.333.064-.043 1.388-.876 1.218-2.842.085.085 1.474 1.902.64 3.718.107-.064 1.432-1.175 1.86-1.988z" fill="#232323"/><path d="M15.656 9.688h0v.439-.439a3.056 3.056 0 013.053 3.053h0v1.306c.129.021.257.044.385.069h0a1.133 1.133 0 01.923 1.118m-4.36-5.546l3.86 5.545m-3.86-5.545h-.095 0v.5l.094-.5zm4.36 5.546v.002l-.5-.003m.5.001v-.001h-.5m.5.001v3.848c0 .25-.087.491-.246.683h0a1.07 1.07 0 01-.624.37h-.001l-.348.066-.093-.491m.812-4.477v3.85a.572.572 0 01-.464.561l-.348.066m0 0a16.64 16.64 0 01-3.097.29m3.097-.29l.093.491c-1.052.199-2.12.3-3.19.299V20m-3.095-.29l-.35-.066a.573.573 0 01-.465-.561v-3.907a.573.573 0 01.466-.562l.053-.007m.296 5.103l-.092.491-.35-.066h0a1.072 1.072 0 01-.626-.369h0a1.072 1.072 0 01-.247-.683h0v-3.907 0c0-.25.088-.492.247-.684h0c.16-.192.38-.323.626-.37l.012-.002.012-.001.041-.006m.378 5.597l-.093.491h0c1.05.199 2.118.299 3.187.299V20m-3.095-.29c1.02.193 2.057.29 3.095.29m-3.472-5.887a.644.644 0 00-.012.003l.093.49m-.08-.493l.011-.002.069.496m-.08-.494c.12-.022.24-.044.36-.064V12.74a3.056 3.056 0 01.9-2.161l-1.18 4.028m4.395-1.148v.19l.127.142.373-.332-.373.332.03.034a18.723 18.723 0 00-2.174-.009v-1.074a.962.962 0 01.961-.962h.095a.961.961 0 01.961.962v.717zm-1.123 4.355l.12-.337.12.337c-.08.008-.16.008-.24 0zm.12-1.067l-.079-.062a.126.126 0 01-.047-.09l-.499.04.499-.039a.126.126 0 01.033-.095h0a.126.126 0 01.185 0h0c.024.025.036.06.034.095h0a.126.126 0 01-.048.09l-.078.061zm-.46.986l.003.001h-.002l-.001.002v-.003z" fill="#232323" stroke="#FAFAFA"/></svg>