<svg width="44" height="45" fill="none" xmlns="http://www.w3.org/2000/svg"><g clip-path="url(#clip0_2044_3181)"><path fill="#F4F4F4" d="M0 .5h44v44H0z"/><path d="M40.213 33.778a11.228 11.228 0 00-5.574-3.466l-6.542-1.745v-2.352l.77-.656a7.439 7.439 0 002.617-5.674v-.281h.677a2.033 2.033 0 000-4.065h-.181l.926-1.625a4.592 4.592 0 00-.166-4.832 9.76 9.76 0 00-7.353-4.332V3.346a.678.678 0 00-.677-.678H1.677A.677.677 0 001 3.346v35.226a.678.678 0 00.677.677h4.914a11.32 11.32 0 00-.172 1.944v2.798a.678.678 0 00.678.677h35.226a.678.678 0 00.677-.677v-2.798c0-2.728-.99-5.363-2.787-7.415zM24.71 29.685l-2.032-1.017v-1.455a4.247 4.247 0 004.064.004v1.451l-2.032 1.017zm-.768 5.5h1.535l1.162 8.129H22.78l1.162-8.13zm2.758-2.853l-.998 1.498h-1.985l-.998-1.498.386-1.934 1.301.65c.19.095.415.095.605 0l1.302-.65.387 1.934zm1.287-7.805l-1.333 1.136a3.07 3.07 0 01-3.89-.006l-1.345-1.152a6.093 6.093 0 01-2.128-4.63V15.2l.988-.742a4.789 4.789 0 012.856-.952 6.074 6.074 0 004.324-1.792l.068-.068.96.577a3.403 3.403 0 011.642 2.909v4.755a6.087 6.087 0 01-2.142 4.64zM17.936 18.25h-.678a.677.677 0 010-1.355h.678v1.355zm14.903-.677a.678.678 0 01-.677.677h-.678v-1.355h.678a.678.678 0 01.677.678zm-1.23-7.74a3.24 3.24 0 01.117 3.412l-.397.699a4.762 4.762 0 00-2.148-2.875l-1.415-.849a.677.677 0 00-.827.102l-.438.44a4.73 4.73 0 01-3.366 1.391 6.152 6.152 0 00-3.669 1.22l-1.056.794-.85-1.709a2.872 2.872 0 01.27-3.01 8.422 8.422 0 0113.78.385zM2.355 37.894V4.024h21.677v.71a9.783 9.783 0 00-4.368 1.322h-7.825V7.41h6.02a9.703 9.703 0 00-1.114 1.228c-.03.041-.053.086-.082.128H11.84v1.355h4.2c-.114.442-.155.9-.122 1.354H11.84v1.355h4.412c.033.077.059.156.096.232l1.234 2.477h-.323a2.032 2.032 0 000 4.065h.678v.27a7.446 7.446 0 00.68 3.117H3.71v1.355h15.716c.327.435.7.833 1.113 1.187l.194.168H3.71v1.355h17.613v1.355H3.71v1.355h13.122l-2.052.547a11.215 11.215 0 00-7.857 7.581H2.355zm5.42 3.3a9.906 9.906 0 017.353-9.574l6.706-1.789-.501 2.507a.68.68 0 00.1.509l1.212 1.817-1.233 8.65H14.55v-6.097h-1.355v6.097h-5.42v-2.12zm33.87 2.12h-5.42v-6.097h-1.354v6.097h-6.864l-1.236-8.647 1.212-1.817c.1-.15.136-.333.1-.509l-.502-2.506 6.707 1.789a9.908 9.908 0 017.357 9.569v2.12z" fill="#C40E38"/><path d="M4.387 16.217h5.42a.677.677 0 00.677-.678v-2.71c0-1.126-.56-2.179-1.494-2.808a2.71 2.71 0 10-3.784 0A3.386 3.386 0 003.71 12.83v2.71a.678.678 0 00.677.677zm2.71-9.484a1.355 1.355 0 110 2.71 1.355 1.355 0 010-2.71zM5.065 12.83a2.033 2.033 0 014.064 0v2.032H5.065V12.83zm-.678 8.806h5.42a.678.678 0 00.677-.677v-2.71a.677.677 0 00-.677-.677h-5.42a.677.677 0 00-.677.677v2.71a.678.678 0 00.677.677zm.678-2.71h4.064v1.355H5.065v-1.355z" fill="#C40E38"/></g><defs><clipPath id="clip0_2044_3181"><path fill="#fff" transform="translate(0 .5)" d="M0 0h44v44H0z"/></clipPath></defs></svg>