<svg width="44" height="45" fill="none" xmlns="http://www.w3.org/2000/svg"><g clip-path="url(#clip0_2044_3207)"><path fill="#F4F4F4" d="M0 .5h44v44H0z"/><path fill="#F4F4F4" d="M0 .5h44v44H0z"/><path d="M18.468 20.167v18.128h16.189l5.205 5.205v-5.205H43V20.167H18.468z" stroke="#C40E38" stroke-width="1.5" stroke-miterlimit="10" stroke-linecap="round" stroke-linejoin="round"/><path d="M40.195 23.542H21v3.506h19.195v-3.506zm-18.02 2.34v-1.215H39.08v1.216H22.176zm18.02 2.66H21v3.506h19.195v-3.506zm-18.02 2.34v-1.215H39.08v1.216H22.176z" fill="#C40E38"/><path d="M18.468 20.167h16.185V1.5H1v24.867h4.305v7.14l7.14-7.14h6.023v-6.2z" stroke="#C40E38" stroke-width="1.5" stroke-miterlimit="10" stroke-linecap="round" stroke-linejoin="round"/><path d="M30.195 11.542H5v3.506h25.195v-3.506zm-24.02 2.34v-1.215H29.08v1.216H6.176zm9.02 2.66H5v3.506h10.195v-3.506zm-9.02 2.34v-1.215h7.905v1.216H6.176zM7.04 4.736a2.533 2.533 0 100 5.067 2.533 2.533 0 000-5.067zm1.388 2.533a1.388 1.388 0 110-.05v.05z" fill="#C40E38"/></g><defs><clipPath id="clip0_2044_3207"><path fill="#fff" transform="translate(0 .5)" d="M0 0h44v44H0z"/></clipPath></defs></svg>