<svg width="44" height="45" fill="none" xmlns="http://www.w3.org/2000/svg"><g clip-path="url(#clip0_2044_3282)"><path fill="#F4F4F4" d="M0 .5h44v44H0z"/><path fill="#F4F4F4" d="M0 .5h44v44H0z"/><path d="M25.826 6.406h-7.654a.819.819 0 100 1.637h7.654a.819.819 0 000-1.637zm0 3.7h-7.654a.819.819 0 100 1.638h7.654a.819.819 0 000-1.638z" fill="#C40E38"/><path d="M41.331 24.077a.821.821 0 00-.039-.239 19.276 19.276 0 00-9.741-16.47V2.32a.819.819 0 00-.819-.82H13.267a.818.818 0 00-.818.819v5.048A19.29 19.29 0 002.707 23.84a.822.822 0 00-.038.236v9.278c0 .452.366.82.819.82h2.768l4.505 2.89a.824.824 0 00.834.03.82.82 0 00.427-.72V24.077a.818.818 0 00-1.273-.681l-4.5 2.993H4.306v-1.866l2.769-1.79a.817.817 0 00.367-.58 14.842 14.842 0 01.793-3.16 15.62 15.62 0 01.82-1.808 14.756 14.756 0 013.393-4.206v2.852a.82.82 0 00.819.819h5.645l2.406 3.59a.82.82 0 001.36 0l2.409-3.59h5.645a.819.819 0 00.819-.819v-2.84a14.785 14.785 0 013.356 4.147 14.415 14.415 0 011.647 5.01.82.82 0 00.367.58l2.772 1.795v1.866H37.74l-4.5-2.94a.82.82 0 00-1.267.686v12.294a.819.819 0 001.267.685l4.5-2.94h1.953v5.551a2.14 2.14 0 01-2.137 2.138l-13.729-.047 1.657-1.867a.819.819 0 10-1.225-1.086l-2.294 2.585-2.294-2.585a.82.82 0 00-1.226 1.086l2.907 3.276a.82.82 0 00.612.276c.095 0 .187-.02.275-.052l15.314.052h.002a3.78 3.78 0 003.775-3.775V24.075h.001zm-30.948 10.8L7.321 32.91v-5.27l3.063-2.036v9.272zm-4.7-2.341H4.307v-4.51h1.378v4.51zM7.612 16.41a17.19 17.19 0 00-.911 2.009 16.699 16.699 0 00-.826 3.138l-1.455.94a17.657 17.657 0 018.03-13.224V10.9a16.395 16.395 0 00-4.838 5.51zm17.04-1.4a.82.82 0 00-.681.363l-1.972 2.939-1.969-2.939a.82.82 0 00-.68-.363h-5.263V3.138h15.827V15.01H24.65zm11.695 1.344a16.423 16.423 0 00-4.795-5.445V9.276a17.64 17.64 0 018.028 13.22l-1.456-.942a16.074 16.074 0 00-1.777-5.2zm-2.736 9.291l3.067 2.004v5.261l-3.067 2.003v-9.268zm4.705 2.38h1.377v4.509h-1.377v-4.51z" fill="#C40E38"/></g><defs><clipPath id="clip0_2044_3282"><path fill="#fff" transform="translate(0 .5)" d="M0 0h44v44H0z"/></clipPath></defs></svg>