<svg width="34" height="45" fill="none" xmlns="http://www.w3.org/2000/svg"><path d="M22.618 27.497l-3.385-.518-1.522-3.241a.786.786 0 00-1.423 0l-1.521 3.24-3.386.519a.785.785 0 00-.444 1.325l2.473 2.534-.585 3.589a.786.786 0 001.156.814L17 34.09l3.019 1.67a.785.785 0 001.155-.815l-.585-3.589 2.473-2.534a.787.787 0 00-.444-1.325zm-3.43 3.046a.783.783 0 00-.214.675l.39 2.384-1.984-1.097a.785.785 0 00-.76 0l-1.984 1.097.389-2.383a.783.783 0 00-.213-.676L13.13 28.82l2.288-.35a.785.785 0 00.594-.443L17 25.921l.988 2.105a.785.785 0 00.593.443l2.288.35-1.682 1.724zm13.687-20.028L24.33 1.259A2.362 2.362 0 0022.598.5H2.858A2.361 2.361 0 00.5 2.857v39.286A2.361 2.361 0 002.857 44.5h28.286a2.361 2.361 0 002.357-2.357V12.114a2.36 2.36 0 00-.625-1.6zm-8.804-7.22l6.849 7.42h-6.85v-7.42zm7.072 39.634H2.857a.786.786 0 01-.786-.786V2.858c0-.434.352-.786.786-.786H22.5v8.643a1.573 1.573 0 001.571 1.571h7.857v29.857a.786.786 0 01-.785.786zM4.429 6.786c0-.434.351-.786.785-.786h7.857a.786.786 0 010 1.572H5.214a.786.786 0 01-.785-.786zm0 4.714c0-.434.351-.785.785-.785h14.143a.786.786 0 010 1.571H5.214a.786.786 0 01-.785-.786zm25.142 4.715a.786.786 0 01-.785.785H5.214a.786.786 0 010-1.571h23.572a.786.786 0 01.785.786zm-11-9.429a.785.785 0 111.571 0 .785.785 0 01-1.57 0zm-3.142 0a.785.785 0 111.57 0 .785.785 0 01-1.57 0zM28 19.358H6a1.572 1.572 0 00-1.571 1.57v17.287A1.572 1.572 0 006 39.786h22a1.572 1.572 0 001.571-1.571V20.929A1.572 1.572 0 0028 19.358zM6 38.215V20.929h22l.001 17.286H6z" fill="#C40E38"/></svg>