<svg width="44" height="45" fill="none" xmlns="http://www.w3.org/2000/svg"><g clip-path="url(#clip0_2044_3310)"><path fill="#F4F4F4" d="M0 .5h44v44H0z"/><path fill="#F4F4F4" d="M0 .5h44v44H0z"/><path d="M41.339 19.438l-.074.074-.949-.948 1.514-1.514c.29-.29.703-.945.2-2.075-.237-.53-.657-1.112-1.185-1.639-.528-.528-1.11-.95-1.64-1.186-1.133-.505-1.787-.093-2.077.198l-5.98 5.98v-8.302c0-.019-.01-.036-.011-.055a.875.875 0 00-.045-.225c-.01-.028-.017-.055-.03-.082a.871.871 0 00-.17-.256L23.24 1.756a.874.874 0 00-.257-.171c-.026-.012-.053-.02-.08-.029a.854.854 0 00-.23-.046c-.018 0-.034-.01-.052-.01H2.043a.875.875 0 00-.875.875v40.25c0 .484.392.875.875.875h28.23a.875.875 0 00.875-.875V27.732l2.47-2.47.003-.002c0-.001 0-.002.002-.003l5.456-5.456.948.948-4.179 4.18a.875.875 0 001.237 1.237l5.49-5.491a.875.875 0 10-1.236-1.238zm-3.06-5.766c.22.046.742.315 1.327.9.584.584.854 1.106.9 1.327l-7.505 7.505-2.227-2.227 7.505-7.505zM18.159 34.81l1.208 1.21-1.553.344.344-1.553zm2.955.482l-2.228-2.228 10.65-10.65 2.228 2.227-10.65 10.65zm7.045-26.14h-4.663V4.487l4.663 4.663zm1.239 20.332V41.75H2.916V3.25h18.829v6.776c0 .483.391.875.875.875h6.776v9.176l-2.98 2.982a.854.854 0 00-.41-.116h-19.7a.875.875 0 100 1.75h18.475l-7.752 7.751a.868.868 0 00-.17.258c-.014.027-.022.054-.032.083-.01.03-.027.058-.034.09l-.986 4.451a.874.874 0 00.236.808.87.87 0 00.254.17c.021.009.041.019.063.027a.884.884 0 00.289.057l.012.002a.898.898 0 00.19-.02l4.45-.988c.032-.006.06-.023.09-.033.028-.01.055-.019.082-.03a.868.868 0 00.258-.172l7.666-7.664z" fill="#C40E38"/><path d="M6.308 16.37h19.699a.875.875 0 100-1.75H6.308a.875.875 0 100 1.75zm0 4.16h19.699a.875.875 0 100-1.749H6.308a.875.875 0 100 1.75zm10.183 7.45a.875.875 0 00-.874-.876H6.308a.875.875 0 100 1.75h9.309a.874.874 0 00.874-.875zM6.308 7.838h9.308a.875.875 0 100-1.75H6.308a.875.875 0 100 1.75zm0 4.266h12.37a.875.875 0 100-1.75H6.309a.875.875 0 100 1.75z" fill="#C40E38"/></g><defs><clipPath id="clip0_2044_3310"><path fill="#fff" transform="translate(0 .5)" d="M0 0h44v44H0z"/></clipPath></defs></svg>