<svg width="44" height="45" fill="none" xmlns="http://www.w3.org/2000/svg"><g clip-path="url(#clip0_2044_3296)"><path fill="#F4F4F4" d="M0 .5h44v44H0z"/><path fill="#F4F4F4" d="M0 .5h44v44H0z"/><path d="M6.605 38.872V36.77h13.312v-1.4H3.102a.7.7 0 01-.7-.701V8.745H34.63v11.91h1.401v-8.407h2.803v7.007h1.401V8.045a2.102 2.102 0 00-2.102-2.102h-2.102V3.84a2.102 2.102 0 00-2.102-2.102H3.102A2.102 2.102 0 001 3.841v30.828a2.102 2.102 0 002.102 2.101h2.102v2.102a2.102 2.102 0 002.102 2.102H24.82v-1.401H7.306a.7.7 0 01-.701-.7zM38.133 7.344a.7.7 0 01.7.7v2.803h-2.802V7.344h2.102zM3.102 3.14h30.827a.7.7 0 01.701.7v3.504H2.401V3.841a.7.7 0 01.7-.7zm35.732 35.732a.7.7 0 01-.7.7h-4.205v1.402h4.204a2.102 2.102 0 002.102-2.102V36.07h-1.401v2.802z" fill="#C40E38"/><path d="M5.204 4.541h1.4v1.402h-1.4V4.54zm2.802 0h1.401v1.402h-1.4V4.54zm2.803 0h1.4v1.402h-1.4V4.54zm3.503 15.414a.7.7 0 00.7-.7v-7.007a.701.701 0 00-.7-.7H5.904a.7.7 0 00-.7.7v7.007a.7.7 0 00.7.7h8.408zM6.605 12.95h7.006v5.605H6.605V12.95zm11.21-1.402h1.401v1.401h-1.401v-1.401zm2.802 0h1.402v1.401h-1.401v-1.401zm2.803 0h5.605v1.401H23.42v-1.401zm-5.605 2.802h11.21v1.402h-11.21V14.35zm0 2.803h11.21v1.401h-11.21v-1.401zm0 2.802h11.21v1.402h-11.21v-1.402zM5.204 22.758h12.611v1.401H5.204v-1.401zm0 2.802h12.611v1.402H5.204V25.56zm0 2.803h12.611v1.401H5.204v-1.401zm0 2.802h12.611v1.402H5.204v-1.402zm25.086 4.53l5.3-.764a2.09 2.09 0 002.561.37 2.104 2.104 0 00.77-2.873l-1.75-3.034a2.103 2.103 0 10-2.103-3.643l-1.751-3.034a2.103 2.103 0 00-3.833 1.635l-4.335 5.507-3.524 2.032a2.104 2.104 0 00-.77 2.873l1.4 2.427a2.104 2.104 0 002.873.77l2.453 4.248a2.102 2.102 0 002.872.77l1.214-.7a2.105 2.105 0 00.77-2.873l-2.148-3.711zm6.435-8.47a.7.7 0 01-.256.956l-.7-1.213a.7.7 0 01.956.256zm-5.58-4.06a.7.7 0 01.957.256l5.605 9.709a.7.7 0 11-1.213.7l-5.605-9.708a.7.7 0 01.256-.956zm-.952 2.554l4.57 7.917-5.976.86-2.328-4.031 3.734-4.746zm-4.835 5.641l2.102 3.643-1.213.701-2.102-3.643 1.213-.7zm-1.891 5.136l-1.402-2.427a.7.7 0 01.257-.957l.607-.35 2.102 3.643-.607.35a.7.7 0 01-.954-.26h-.003zm7.496 4.572l-1.213.7a.7.7 0 01-.957-.256l-2.452-4.247 2.312-1.331.14-.02 2.425 4.2a.7.7 0 01-.254.954zm7.84-15.852l2.427-1.401.7 1.213-2.427 1.402-.7-1.214zm-2.335-1.65l.77-2.872 1.352.363-.769 2.872-1.353-.363zm3.298 5.712l.363-1.353 2.871.77-.363 1.352-2.871-.769z" fill="#C40E38"/></g><defs><clipPath id="clip0_2044_3296"><path fill="#fff" transform="translate(0 .5)" d="M0 0h44v44H0z"/></clipPath></defs></svg>