<svg width="19" height="22" fill="none" xmlns="http://www.w3.org/2000/svg"><path fill-rule="evenodd" clip-rule="evenodd" d="M16.706 5.575l-.836.836c1.367 1.563 2.203 3.599 2.203 5.802A8.786 8.786 0 019.287 21 8.786 8.786 0 01.5 12.213c0-4.658 3.626-8.48 8.229-8.758v-1.34h-.893V1h2.901v1.116h-.893v1.339a8.8 8.8 0 015.245 2.175l.836-.836.781.78zM1.616 12.24c0 4.24 3.43 7.671 7.67 7.671s7.671-3.43 7.671-7.67-3.43-7.672-7.67-7.672S1.616 8 1.616 12.24zm7.894-1.03l3.263-3.264.782.809-3.236 3.236c0 .042.007.083.014.125.007.042.014.084.014.126a1.06 1.06 0 11-1.06-1.06c.083 0 .14 0 .223.027z" fill="#232323"/><path d="M15.87 6.411l-.142-.141-.132.132.123.141.15-.132zm.836-.836l.142.141.141-.141-.141-.142-.142.142zM8.73 3.455l.012.2.188-.012v-.188h-.2zm0-1.34h.2v-.2h-.2v.2zm-.893 0h-.2v.2h.2v-.2zm0-1.115V.8h-.2V1h.2zm2.901 0h.2V.8h-.2V1zm0 1.116v.2h.2v-.2h-.2zm-.893 0v-.2h-.2v.2h.2zm0 1.339h-.2v.186l.187.013.013-.2zM15.09 5.63l-.133.15.141.125.133-.133-.141-.142zm.836-.836l.142-.142-.142-.141-.141.141.141.142zm-3.152 3.152l.144-.14-.141-.146-.144.144.141.142zM9.51 11.21l-.063.19.117.038.087-.087-.141-.142zm4.045-2.455l.141.141.139-.139-.137-.141-.143.139zm-3.236 3.236l-.142-.142-.058.059v.083h.2zm5.692-5.438l.837-.837-.283-.283-.837.837.283.283zm2.262 5.66c0-2.255-.856-4.337-2.253-5.933l-.3.263c1.336 1.528 2.153 3.518 2.153 5.67h.4zM9.287 21.2a8.986 8.986 0 008.986-8.987h-.4A8.586 8.586 0 019.287 20.8v.4zM.3 12.213A8.986 8.986 0 009.287 21.2v-.4A8.586 8.586 0 01.7 12.213H.3zm8.417-8.958C4.009 3.54.3 7.449.3 12.213h.4c0-4.552 3.544-8.286 8.04-8.559l-.023-.4zm-.188-1.14v1.34h.4v-1.34h-.4zm-.693.2h.893v-.4h-.893v.4zM7.636 1v1.116h.4V1h-.4zm3.101-.2h-2.9v.4h2.9V.8zm.2 1.316V1h-.4v1.116h.4zm-1.093.2h.893v-.4h-.893v.4zm.2 1.139v-1.34h-.4v1.34h.4zm5.177 2.026a8.995 8.995 0 00-5.363-2.226l-.027.4c1.964.136 3.736.9 5.125 2.125l.265-.3zm.563-.829l-.837.837.283.283.837-.837-.283-.283zm1.064.781l-.781-.78-.283.282.781.781.283-.283zm-7.561 14.28a7.467 7.467 0 01-7.471-7.472h-.4c0 4.35 3.52 7.871 7.87 7.871v-.4zm7.47-7.472c0 4.13-3.34 7.471-7.47 7.471v.4c4.35 0 7.87-3.52 7.87-7.87h-.4zm-7.47-7.47c4.13 0 7.47 3.34 7.47 7.47h.4c0-4.35-3.52-7.87-7.87-7.87v.4zm-7.471 7.47c0-4.13 3.341-7.47 7.47-7.47v-.4c-4.35 0-7.87 3.52-7.87 7.87h.4zm10.816-4.437l-3.264 3.264.283.283 3.264-3.264-.283-.283zm1.066.812l-.78-.81-.288.279.78.809.288-.278zm-3.238 3.516l3.236-3.236-.283-.283-3.236 3.236.283.283zm.07-.049a.59.59 0 01-.011-.092h-.4c0 .06.01.12.016.158l.395-.066zm.017.159c0-.062-.01-.12-.017-.159l-.395.066c.008.045.012.07.012.093h.4zm-1.26 1.26a1.26 1.26 0 001.26-1.26h-.4a.86.86 0 01-.86.86v.4zm-1.26-1.26c0 .696.563 1.26 1.26 1.26v-.4a.86.86 0 01-.86-.86h-.4zm1.26-1.26a1.26 1.26 0 00-1.26 1.26h.4a.86.86 0 01.86-.86v-.4zm.286.038c-.117-.04-.201-.038-.286-.038v.4c.081 0 .109 0 .16.017l.126-.38z" fill="#232323"/></svg>