<svg width="32" height="32" fill="none" xmlns="http://www.w3.org/2000/svg"><path d="M16 0C7.162 0 0 7.162 0 16c0 8.838 7.162 16 16 16 8.838 0 16-7.162 16-16 0-8.838-7.162-16-16-16zm8 23.09c-.013.513-.384.84-.973.846-2.176.006-4.755.006-6.924 0-.026 0-.09-.007-.09-.013 0 .006-.064.013-.096.013-2.17.006-4.755.006-6.924 0-.59 0-.954-.333-.973-.845-.013-.365 0-.724-.007-1.088 0-.512.263-.903.73-1.216 1.331-.903 3.155-1.696 4.665-2.355.167-.077.23-.154.225-.314-.013-.288.006-.57-.007-.858-.006-.134-.051-.281-.077-.39h.039l-.058-.115v-.013c-.192-.403-.429-.78-.653-1.178-.038-.064-.096-.128-.147-.192-.473-.646-.704-1.344-.646-2.112a.59.59 0 01.096-.32c.185-.23.128-.473.09-.723-.084-.525-.122-1.056.019-1.58.172-.647.537-1.127 1.299-1.306a.38.38 0 00.179-.147c.422-.756 1.318-1.159 2.253-1.146.953-.013 1.83.39 2.253 1.146a.337.337 0 00.179.147c.761.179 1.126.66 1.299 1.305.14.525.102 1.05.02 1.581-.04.243-.103.493.089.723.064.09.09.212.096.32.057.768-.173 1.472-.647 2.112-.05.07-.108.128-.147.199-.224.397-.46.78-.653 1.184v.006c-.012.038-.038.077-.057.115h.012c-.025.11-.07.256-.076.39-.013.289.006.57-.007.858-.006.16.064.244.224.314 1.504.66 3.328 1.453 4.666 2.355.467.314.736.704.73 1.216 0 .365.006.723 0 1.082H24z" fill="#C40E38"/></svg>